<?xml version="1.0" encoding="utf-8"?>
<!-- Generator: Adobe Illustrator 16.0.0, SVG Export Plug-In . SVG Version: 6.00 Build 0)  -->
<!DOCTYPE svg PUBLIC "-//W3C//DTD SVG 1.1//EN" "http://www.w3.org/Graphics/SVG/1.1/DTD/svg11.dtd">
<svg version="1.1" id="Layer_1" xmlns="http://www.w3.org/2000/svg" xmlns:xlink="http://www.w3.org/1999/xlink" x="0px" y="0px"
	 width="30px" height="27px" viewBox="0 0 30 27" enable-background="new 0 0 30 27" xml:space="preserve">
<g>
	<g>
		<path fill="#4D4D4D" d="M29.92,25.56c-0.076-0.514-0.165-1.364-1.193-1.938c-3.121-1.737-7.006-2.675-8.315-3.701
			c-0.481-0.274-0.401-1.203-0.517-1.837c-0.109-0.598-1.22,0.306-1.646,0.684c-1.054,0.939-2.09,1.419-3.072,1.419H15.14
			c-0.98,0-2.016-0.479-3.075-1.421c-0.559-0.495-1.875-1.115-1.992-0.483c-0.114,0.632,0.02,1.29-0.5,1.697
			c-1.309,1.027-5.206,1.853-8.298,3.643c-1.111,0.644-1.116,1.424-1.194,1.938C0.06,25.703,0.03,26.267,0,27h30
			C29.97,26.267,29.94,25.704,29.92,25.56z"/>
	</g>
	<g>
		<path fill="#4D4D4D" d="M20.983,9.577c0.265-1.14,0.255-2.549,0.185-3.646c-0.409-1.945-2.347-2.427-3.342-2.427l-0.127,0.001
			c-0.211,0.005-0.416,0.007-0.614,0.007l0,0c-1.914,0-3.481-0.187-4.668-0.558c0.061,0.175,0.073,0.341,0.038,0.498
			c-0.098,0.437-0.509,0.713-1.26,0.847C9.277,4.643,8.91,9.566,8.91,9.615L8.895,9.601c-0.026-0.573-0.26-5.533,2.189-5.97
			c0.545-0.097,0.719-0.253,0.736-0.332c0.004-0.021,0.552-0.709-0.89-1.345c0,0.002,0,0.002,0,0.003
			c-3.504,0.209-2.38,5.74-2.38,5.74l0.071,0.244c0.048,0.569,0.132,1.137,0.27,1.647c0,0-1.215-0.146-0.431,2.78
			c0,0,0.391,0.96,1.1,0.825c0.071,0.372,0.166,0.739,0.29,1.097c0.516,1.5,1.471,2.858,2.677,3.928
			c0.691,0.615,1.615,1.244,2.611,1.244h0.038c0.996,0,1.921-0.629,2.611-1.244c1.209-1.069,2.162-2.428,2.677-3.928
			c0.106-0.311,0.195-0.686,0.266-1.098c0.523-0.138,0.784-0.853,0.784-0.853C22.194,9.39,20.983,9.577,20.983,9.577z"/>
		<path fill="#4D4D4D" d="M10.942,1.925c0.461,0.316,2.8,0.987,6.744,0.903l0.149-0.001c1.441,0,2.5,0.458,3.15,1.354
			c-0.002-0.009-0.004-0.021-0.004-0.021C20.275-1.756,10.177-0.25,10.92,1.91L10.942,1.925z"/>
	</g>
</g>
</svg>
