<?xml version="1.0" encoding="utf-8"?>
<!-- Generator: Adobe Illustrator 16.0.0, SVG Export Plug-In . SVG Version: 6.00 Build 0)  -->
<!DOCTYPE svg PUBLIC "-//W3C//DTD SVG 1.1//EN" "http://www.w3.org/Graphics/SVG/1.1/DTD/svg11.dtd">
<svg version="1.1" id="Layer_1" xmlns="http://www.w3.org/2000/svg" xmlns:xlink="http://www.w3.org/1999/xlink" x="0px" y="0px"
	 width="19px" height="23px" viewBox="0 0 19 23" enable-background="new 0 0 19 23" xml:space="preserve">
<g>
	<polygon fill="#EF4B57" points="1,1 1,23 19,23 19,6 14,1 	"/>
</g>
<g>
	<polygon fill="#C91419" points="0,0 0,22 18,22 18,5 13,0 	"/>
</g>
<polygon fill="#EF4B57" points="18,5 13,5 13,0 "/>
<path fill="#FFFFFF" stroke="#FFFFFF" stroke-miterlimit="10" d="M13.504,13.438c-0.024-0.004-0.645-0.06-1.593-0.06
	c-0.298,0-0.598,0.006-0.894,0.017C9.143,11.987,7.606,10.58,6.784,9.79c0.015-0.086,0.025-0.156,0.03-0.208
	c0.108-1.145-0.012-1.918-0.357-2.297C6.231,7.036,5.899,6.954,5.553,7.048C5.338,7.104,4.94,7.312,4.813,7.737
	c-0.141,0.469,0.085,1.039,0.68,1.699c0.009,0.01,0.211,0.221,0.577,0.578c-0.238,1.135-0.861,3.584-1.163,4.76
	c-0.71,0.379-1.302,0.836-1.759,1.36l-0.03,0.033l-0.019,0.042c-0.047,0.1-0.272,0.613-0.103,1.026
	c0.077,0.188,0.221,0.325,0.418,0.396l0.054,0.015c0,0,0.047,0.01,0.13,0.01c0.366,0,1.27-0.192,1.755-1.979l0.118-0.453
	c1.692-0.822,3.808-1.088,5.341-1.162c0.789,0.585,1.574,1.122,2.335,1.598l0.024,0.016c0.037,0.018,0.371,0.183,0.762,0.184l0,0
	c0.558,0,0.966-0.343,1.116-0.939l0.009-0.041c0.043-0.342-0.044-0.648-0.248-0.89C14.379,13.483,13.576,13.439,13.504,13.438z
	 M3.61,16.998c-0.003-0.005-0.005-0.008-0.006-0.012c-0.036-0.088,0.007-0.301,0.071-0.457c0.276-0.309,0.608-0.592,0.99-0.848
	C4.293,16.889,3.752,16.992,3.61,16.998z M5.975,8.988L5.975,8.988C5.403,8.351,5.412,8.036,5.443,7.929
	c0.05-0.177,0.277-0.245,0.28-0.245C5.838,7.653,5.907,7.659,5.97,7.727C6.11,7.882,6.23,8.346,6.183,9.199
	C6.048,9.063,5.975,8.988,5.975,8.988z M5.68,14.41l0.009-0.038l-0.001,0.001c0.286-1.123,0.7-2.765,0.937-3.82l0.009,0.008l0-0.004
	c0.769,0.723,1.947,1.781,3.357,2.882l-0.016,0.001L10,13.457C8.67,13.568,7.084,13.831,5.68,14.41z M14.406,14.777
	c-0.101,0.371-0.296,0.422-0.474,0.422l0,0c-0.207,0-0.406-0.085-0.452-0.105c-0.518-0.325-1.048-0.68-1.582-1.058
	c0.004,0,0.008,0,0.013,0c0.917,0,1.526,0.056,1.551,0.058c0.153,0.006,0.638,0.077,0.846,0.322
	C14.391,14.513,14.422,14.628,14.406,14.777z"/>
</svg>
