<?xml version="1.0" encoding="utf-8"?>
<!-- Generator: Adobe Illustrator 16.0.0, SVG Export Plug-In . SVG Version: 6.00 Build 0)  -->
<!DOCTYPE svg PUBLIC "-//W3C//DTD SVG 1.1//EN" "http://www.w3.org/Graphics/SVG/1.1/DTD/svg11.dtd">
<svg version="1.1" id="Layer_1" xmlns="http://www.w3.org/2000/svg" xmlns:xlink="http://www.w3.org/1999/xlink" x="0px" y="0px"
	 width="19px" height="23px" viewBox="0 0 19 23" enable-background="new 0 0 19 23" xml:space="preserve">
<g>
	<g>
		<polygon fill="#35B568" points="1.001,1 1.001,23 19.001,23 19.001,6 14.001,1 		"/>
	</g>
	<g>
		<polygon fill="#1F7244" points="0.001,0 0.001,22 18.001,22 18.001,5 13.001,0 		"/>
	</g>
	<polygon fill="#35B568" points="18.001,5 13.001,5 13.001,0 	"/>
	<g>
		<g>
			<g>
				<g>
					<path fill="#FFFFFF" d="M15.001,10v8h-12v-8H15.001 M16.001,9h-14v10h14V9L16.001,9z"/>
				</g>
			</g>
		</g>
		<line fill="none" stroke="#FFFFFF" stroke-miterlimit="10" x1="2.001" y1="12.5" x2="16.001" y2="12.5"/>
		<line fill="none" stroke="#FFFFFF" stroke-miterlimit="10" x1="6.501" y1="18.523" x2="6.501" y2="9"/>
		<line fill="none" stroke="#FFFFFF" stroke-miterlimit="10" x1="11.501" y1="18.523" x2="11.501" y2="9"/>
		<line fill="none" stroke="#FFFFFF" stroke-miterlimit="10" x1="2.001" y1="15.5" x2="16.001" y2="15.5"/>
	</g>
</g>
</svg>
