<?xml version="1.0" encoding="utf-8"?>
<!-- Generator: Adobe Illustrator 16.0.0, SVG Export Plug-In . SVG Version: 6.00 Build 0)  -->
<!DOCTYPE svg PUBLIC "-//W3C//DTD SVG 1.1//EN" "http://www.w3.org/Graphics/SVG/1.1/DTD/svg11.dtd">
<svg version="1.1" id="Layer_1" xmlns="http://www.w3.org/2000/svg" xmlns:xlink="http://www.w3.org/1999/xlink" x="0px" y="0px"
	 width="19px" height="23px" viewBox="0 0 19 23" enable-background="new 0 0 19 23" xml:space="preserve">
<g>
	<polygon fill="#F49B87" points="1,1 1,23 19,23 19,6 14,1 	"/>
</g>
<g>
	<polygon fill="#E65619" points="0,0 0,22 18,22 18,5 13,0 	"/>
</g>
<polygon fill="#F49B87" points="18,5 13,5 13,0 "/>
<path fill="#FFFFFF" d="M10.039,6.5V12h5.5C15.539,8.962,13.077,6.5,10.039,6.5z"/>
<path fill="#FFFFFF" d="M9.04,7.5c-3.038,0-5.5,2.462-5.5,5.5c0,3.037,2.462,5.5,5.5,5.5s5.5-2.463,5.5-5.5h-5.5V7.5z"/>
</svg>
