<?xml version="1.0" encoding="utf-8"?>
<!-- Generator: Adobe Illustrator 16.0.0, SVG Export Plug-In . SVG Version: 6.00 Build 0)  -->
<!DOCTYPE svg PUBLIC "-//W3C//DTD SVG 1.1//EN" "http://www.w3.org/Graphics/SVG/1.1/DTD/svg11.dtd">
<svg version="1.1" id="Layer_1" xmlns="http://www.w3.org/2000/svg" xmlns:xlink="http://www.w3.org/1999/xlink" x="0px" y="0px"
	 width="20px" height="20px" viewBox="0 0 20 20" enable-background="new 0 0 20 20" xml:space="preserve">
<path fill="#4D4D4D" d="M19.975,10.691c0.033-0.484,0.033-0.898,0-1.382l-2.092-0.723c-0.084-0.465-0.189-0.858-0.349-1.303
	l1.449-1.673c-0.212-0.434-0.419-0.793-0.689-1.196L16.12,4.835c-0.306-0.362-0.593-0.65-0.954-0.955l0.419-2.174
	c-0.401-0.271-0.761-0.478-1.194-0.69l-1.674,1.45c-0.445-0.161-0.837-0.266-1.304-0.349L10.69,0.025
	c-0.483-0.034-0.897-0.034-1.381,0L8.587,2.118C8.121,2.201,7.728,2.306,7.283,2.467l-1.674-1.45
	c-0.435,0.212-0.793,0.419-1.194,0.69l0.419,2.174C4.473,4.185,4.186,4.473,3.88,4.835L1.706,4.414
	C1.436,4.817,1.229,5.176,1.017,5.61l1.449,1.673C2.306,7.729,2.2,8.121,2.117,8.586L0.024,9.311c-0.033,0.482-0.033,0.896,0,1.38
	l2.093,0.722c0.083,0.467,0.188,0.858,0.349,1.304l-1.449,1.674c0.213,0.435,0.419,0.792,0.689,1.195l2.174-0.421
	c0.306,0.361,0.593,0.649,0.954,0.955l-0.419,2.173c0.401,0.271,0.76,0.478,1.194,0.691l1.674-1.451
	c0.444,0.16,0.838,0.266,1.304,0.349l0.723,2.093c0.483,0.033,0.897,0.033,1.381,0l0.723-2.093c0.467-0.083,0.858-0.188,1.304-0.349
	l1.674,1.451c0.434-0.214,0.793-0.42,1.194-0.691l-0.419-2.173c0.361-0.306,0.648-0.594,0.954-0.955l2.174,0.421
	c0.271-0.403,0.478-0.761,0.689-1.195l-1.449-1.674c0.159-0.445,0.265-0.837,0.349-1.304L19.975,10.691z M10,12.993
	c-1.652,0-2.992-1.34-2.992-2.993c0-1.652,1.34-2.992,2.992-2.992c1.651,0,2.992,1.34,2.992,2.992
	C12.992,11.653,11.651,12.993,10,12.993z"/>
</svg>
