<?xml version="1.0" encoding="utf-8"?>
<!-- Generator: Adobe Illustrator 16.0.0, SVG Export Plug-In . SVG Version: 6.00 Build 0)  -->
<!DOCTYPE svg PUBLIC "-//W3C//DTD SVG 1.1//EN" "http://www.w3.org/Graphics/SVG/1.1/DTD/svg11.dtd">
<svg version="1.1" id="Layer_1" xmlns="http://www.w3.org/2000/svg" xmlns:xlink="http://www.w3.org/1999/xlink" x="0px" y="0px"
	 width="13px" height="23px" viewBox="0 0 13 23" enable-background="new 0 0 13 23" xml:space="preserve">
<g>
	<polygon fill="#D8D2C4" points="8.618,19.064 4.382,18.157 4.382,17.25 8.618,18.157 	"/>
	<polygon fill="#D8D2C4" points="8.618,20.881 4.382,19.973 4.382,19.064 8.618,19.973 	"/>
	<path fill="#D8D2C4" d="M11.305,10.808c-0.001,0.001-0.002,0.002-0.003,0.003c-2.032,2.459-2.684,5.531-2.684,5.531H6.5H4.382
		c0,0-0.652-3.072-2.684-5.531c-0.001-0.002-0.002-0.002-0.003-0.005C0.731,9.66,0.145,8.17,0.145,6.536C0.145,2.928,2.991,0,6.5,0
		c3.51,0,6.355,2.928,6.355,6.536C12.855,8.17,12.268,9.661,11.305,10.808z"/>
	<path fill="#D8D2C4" d="M7.408,21.448H5.592c0,0.502,0.406,0.908,0.908,0.908C7.001,22.356,7.408,21.95,7.408,21.448z"/>
</g>
</svg>
