<?xml version="1.0" encoding="utf-8"?>
<!-- Generator: Adobe Illustrator 16.0.0, SVG Export Plug-In . SVG Version: 6.00 Build 0)  -->
<!DOCTYPE svg PUBLIC "-//W3C//DTD SVG 1.1//EN" "http://www.w3.org/Graphics/SVG/1.1/DTD/svg11.dtd">
<svg version="1.1" id="Layer_1" xmlns="http://www.w3.org/2000/svg" xmlns:xlink="http://www.w3.org/1999/xlink" x="0px" y="0px"
	 width="17.508px" height="22.275px" viewBox="0 0 17.508 22.275" enable-background="new 0 0 17.508 22.275" xml:space="preserve">
<g>
	<path fill="#00ADD8" d="M16.633,6.908l-5.76-5.758c-1.166-1.167-3.074-1.167-4.242,0L0.875,6.907c-1.166,1.167-1.166,3.076,0,4.243
		l5.756,5.757c0.326,0.326,0.713,0.552,1.123,0.694v4.428h2v-4.428c0.408-0.144,0.795-0.368,1.119-0.693l5.76-5.758
		C17.799,9.983,17.799,8.074,16.633,6.908z"/>
	<g>
		<path fill="#FFFFFF" d="M8.754,3.273l5.758,5.755l-5.76,5.757L2.996,9.027l5.747-5.75c0.002,0,0.008-0.001,0.011-0.001V3.273
			 M8.754,2.275c-0.156,0-0.457,0.037-0.709,0.289L2.289,8.32c-0.383,0.385-0.383,1.033,0,1.416l5.756,5.757
			c0.252,0.252,0.553,0.29,0.709,0.29c0.154,0,0.453-0.038,0.705-0.29l5.76-5.757c0.383-0.384,0.383-1.031,0-1.414l-5.76-5.758
			C9.207,2.312,8.908,2.275,8.754,2.275L8.754,2.275z"/>
	</g>
</g>
</svg>
