<?xml version="1.0" encoding="utf-8"?>
<!-- Generator: Adobe Illustrator 16.0.0, SVG Export Plug-In . SVG Version: 6.00 Build 0)  -->
<!DOCTYPE svg PUBLIC "-//W3C//DTD SVG 1.1//EN" "http://www.w3.org/Graphics/SVG/1.1/DTD/svg11.dtd">
<svg version="1.1" id="Layer_1" xmlns="http://www.w3.org/2000/svg" xmlns:xlink="http://www.w3.org/1999/xlink" x="0px" y="0px"
	 width="16px" height="16px" viewBox="0 0 16 16" enable-background="new 0 0 16 16" xml:space="preserve">
<path fill="#D8D2C4" d="M15.979,8.553c0.027-0.387,0.027-0.719,0-1.105l-1.673-0.578c-0.067-0.372-0.151-0.687-0.28-1.043
	l1.16-1.338c-0.169-0.348-0.335-0.635-0.552-0.957l-1.738,0.337c-0.245-0.29-0.475-0.521-0.764-0.764l0.335-1.739
	c-0.32-0.217-0.607-0.382-0.955-0.552l-1.34,1.16C9.817,1.845,9.504,1.761,9.131,1.694L8.552,0.021
	c-0.387-0.027-0.718-0.027-1.104,0L6.869,1.694c-0.372,0.066-0.687,0.15-1.043,0.279l-1.338-1.16
	C4.14,0.983,3.854,1.148,3.532,1.365l0.335,1.739C3.578,3.348,3.348,3.578,3.104,3.868L1.365,3.531
	C1.148,3.854,0.983,4.141,0.813,4.488l1.16,1.338C1.844,6.183,1.76,6.497,1.694,6.869L0.02,7.448c-0.027,0.386-0.027,0.718,0,1.104
	l1.674,0.578c0.066,0.373,0.15,0.687,0.279,1.043l-1.16,1.339c0.17,0.348,0.335,0.634,0.551,0.956l1.739-0.336
	c0.244,0.289,0.474,0.52,0.763,0.764l-0.335,1.738c0.322,0.217,0.608,0.382,0.956,0.553l1.338-1.161
	c0.356,0.129,0.671,0.213,1.043,0.279l0.579,1.674c0.387,0.027,0.718,0.027,1.104,0l0.579-1.674c0.373-0.066,0.687-0.15,1.042-0.279
	l1.34,1.161c0.348-0.171,0.635-0.336,0.955-0.553l-0.335-1.738c0.289-0.244,0.519-0.475,0.764-0.764l1.738,0.336
	c0.217-0.322,0.383-0.608,0.552-0.956l-1.16-1.339c0.129-0.356,0.213-0.67,0.28-1.043L15.979,8.553z M8,10.394
	c-1.321,0-2.394-1.071-2.394-2.394c0-1.321,1.073-2.394,2.394-2.394S10.394,6.679,10.394,8C10.394,9.322,9.321,10.394,8,10.394z"/>
</svg>
