<?xml version="1.0" encoding="utf-8"?>
<!-- Generator: Adobe Illustrator 16.0.0, SVG Export Plug-In . SVG Version: 6.00 Build 0)  -->
<!DOCTYPE svg PUBLIC "-//W3C//DTD SVG 1.1//EN" "http://www.w3.org/Graphics/SVG/1.1/DTD/svg11.dtd">
<svg version="1.1" id="Layer_1" xmlns="http://www.w3.org/2000/svg" xmlns:xlink="http://www.w3.org/1999/xlink" x="0px" y="0px"
	 width="18px" height="15px" viewBox="0 0 18 15" enable-background="new 0 0 18 15" xml:space="preserve">
<path fill="#A79C94" d="M15.133,3c-0.005,0.11-0.013,0.215-0.013,0.333c0,1.667,0,2.667,0,2.667h-12c0,0,0-1.333,0-2.667
	C3.12,3.215,3.128,3.11,3.133,3H0v8h3c0-1.489,0-3,0-3h12c0,0,0,1.676,0,3h3V3H15.133z"/>
<g>
	<path fill="#A79C94" d="M14,9v2.666c0,2.185-0.931,2.326-1,2.334H3.597C3.845,13.398,4,12.632,4,11.666V9H14 M15,8H3
		c0,0,0,2,0,3.666C3,15,1,15,1,15h12c0,0,2,0,2-3.334C15,10.333,15,8,15,8L15,8z"/>
</g>
<g>
	<path fill="#A79C94" d="M14.523,1c-0.247,0.602-0.403,1.367-0.403,2.333V5h-10V3.333c0-2.184,0.93-2.326,1-2.333H14.523 M17.12,0
		h-12c0,0-2,0-2,3.333c0,1.333,0,2.667,0,2.667h12c0,0,0-1,0-2.667C15.12,0,17.12,0,17.12,0L17.12,0z"/>
</g>
</svg>
