<?xml version="1.0" encoding="utf-8"?>
<!-- Generator: Adobe Illustrator 16.0.0, SVG Export Plug-In . SVG Version: 6.00 Build 0)  -->
<!DOCTYPE svg PUBLIC "-//W3C//DTD SVG 1.1//EN" "http://www.w3.org/Graphics/SVG/1.1/DTD/svg11.dtd">
<svg version="1.1" id="Layer_1" xmlns="http://www.w3.org/2000/svg" xmlns:xlink="http://www.w3.org/1999/xlink" x="0px" y="0px"
	 width="26px" height="26px" viewBox="0 0 26 26" enable-background="new 0 0 26 26" xml:space="preserve">
<path fill="#4D4D4D" d="M13,0C5.821,0,0,5.821,0,13.001c0,7.181,5.821,13,13,13c7.181,0,13-5.819,13-13C26,5.821,20.181,0,13,0z
	 M15,22.001h-4v-2h4V22.001z M17.536,13.921c-0.001,0.001-0.001,0.003-0.003,0.004C15.615,16.182,15,19.001,15,19.001h-2h-2
	c0,0-0.615-2.819-2.533-5.076c-0.001-0.002-0.002-0.003-0.003-0.005C7.554,12.868,7,11.501,7,10.001c0-3.313,2.687-6,6-6
	s6,2.687,6,6C19,11.501,18.445,12.869,17.536,13.921z"/>
</svg>
