<?xml version="1.0" encoding="utf-8"?>
<!-- Generator: Adobe Illustrator 16.0.0, SVG Export Plug-In . SVG Version: 6.00 Build 0)  -->
<!DOCTYPE svg PUBLIC "-//W3C//DTD SVG 1.1//EN" "http://www.w3.org/Graphics/SVG/1.1/DTD/svg11.dtd">
<svg version="1.1" id="Layer_1" xmlns="http://www.w3.org/2000/svg" xmlns:xlink="http://www.w3.org/1999/xlink" x="0px" y="0px"
	 width="26px" height="26px" viewBox="0 0 26 26" enable-background="new 0 0 26 26" xml:space="preserve">
<path fill="#4D4D4D" d="M13,0.001c-7.18,0-13,5.82-13,13s5.82,13,13,13s13-5.82,13-13S20.18,0.001,13,0.001z M19.865,18.97
	l-1.041,1.041c-0.186,0.186-0.73,0.301-0.748,0.301c-3.293,0.029-6.463-1.265-8.793-3.594c-2.336-2.338-3.631-5.52-3.596-8.823
	c0-0.002,0.119-0.53,0.305-0.714L7.033,6.14c0.381-0.383,1.112-0.557,1.625-0.384l0.219,0.072c0.512,0.171,1.048,0.736,1.188,1.257
	l0.524,1.922c0.141,0.521-0.05,1.265-0.431,1.646l-0.694,0.695c0.682,2.526,2.664,4.508,5.19,5.192l0.695-0.695
	c0.382-0.383,1.125-0.573,1.646-0.432l1.922,0.525c0.521,0.143,1.085,0.676,1.257,1.187l0.072,0.223
	C20.417,17.858,20.246,18.59,19.865,18.97z"/>
</svg>
