<?xml version="1.0" encoding="utf-8"?>
<!-- Generator: Adobe Illustrator 16.0.0, SVG Export Plug-In . SVG Version: 6.00 Build 0)  -->
<!DOCTYPE svg PUBLIC "-//W3C//DTD SVG 1.1//EN" "http://www.w3.org/Graphics/SVG/1.1/DTD/svg11.dtd">
<svg version="1.1" id="Layer_1" xmlns="http://www.w3.org/2000/svg" xmlns:xlink="http://www.w3.org/1999/xlink" x="0px" y="0px"
	 width="127px" height="22px" viewBox="0 0 127 22" enable-background="new 0 0 127 22" xml:space="preserve">
<g>
	<path fill="#4D4D4D" d="M0,7.219c0-0.615,0.498-1.144,1.114-1.144c0.646,0,1.144,0.499,1.144,1.144V8.86
		c0.996-1.642,2.58-2.962,5.188-2.962c3.665,0,5.805,2.463,5.805,6.069v8.413c0,0.646-0.499,1.144-1.114,1.144
		c-0.645,0-1.144-0.498-1.144-1.144v-7.855c0-2.814-1.524-4.574-4.193-4.574c-2.609,0-4.543,1.906-4.543,4.75v7.68
		c0,0.646-0.469,1.144-1.114,1.144C0.498,21.524,0,21.026,0,20.381V7.219z"/>
	<path fill="#4D4D4D" d="M31.047,20.381c0,0.616-0.47,1.144-1.115,1.144c-0.615,0-1.114-0.498-1.114-1.144v-1.642
		c-1.025,1.642-2.58,2.961-5.188,2.961c-3.665,0-5.804-2.462-5.804-6.068V7.219c0-0.645,0.469-1.144,1.114-1.144
		c0.615,0,1.143,0.499,1.143,1.144v7.856c0,2.813,1.524,4.573,4.192,4.573c2.58,0,4.543-1.905,4.543-4.75v-7.68
		c0-0.645,0.47-1.144,1.114-1.144c0.616,0,1.115,0.499,1.115,1.144V20.381z"/>
	<path fill="#4D4D4D" d="M36.12,7.219c0-0.615,0.497-1.144,1.113-1.144c0.645,0,1.143,0.499,1.143,1.144v1.553
		c0.997-1.494,2.346-2.873,4.896-2.873c2.463,0,4.046,1.32,4.867,3.021c1.085-1.671,2.697-3.021,5.335-3.021
		c3.488,0,5.628,2.346,5.628,6.099v8.384c0,0.646-0.498,1.144-1.114,1.144c-0.645,0-1.143-0.498-1.143-1.144v-7.855
		c0-2.933-1.466-4.574-3.928-4.574c-2.287,0-4.164,1.7-4.164,4.691v7.738c0,0.646-0.497,1.144-1.143,1.144
		c-0.616,0-1.114-0.498-1.114-1.144v-7.915c0-2.844-1.495-4.515-3.899-4.515c-2.404,0-4.222,1.994-4.222,4.779v7.65
		c0,0.646-0.468,1.144-1.114,1.144s-1.143-0.498-1.143-1.144V7.219z"/>
	<path fill="#4D4D4D" d="M70.626,21.729c-4.162,0-7.563-3.195-7.563-7.886v-0.059c0-4.367,3.079-7.887,7.271-7.887
		c4.484,0,7.035,3.666,7.035,7.682c0,0.615-0.497,1.055-1.055,1.055H65.35c0.322,3.283,2.639,5.131,5.335,5.131
		c1.877,0,3.254-0.732,4.369-1.76c0.176-0.146,0.381-0.263,0.645-0.263c0.557,0,0.997,0.439,0.997,0.968
		c0,0.264-0.118,0.527-0.353,0.732C74.907,20.82,73.206,21.729,70.626,21.729z M75.111,12.965c-0.234-2.756-1.817-5.16-4.837-5.16
		c-2.639,0-4.631,2.199-4.925,5.16H75.111z"/>
	<path fill="#4D4D4D" d="M82.148,17.361V8.215h-1.231c-0.527,0-0.996-0.469-0.996-0.996c0-0.557,0.469-0.996,0.996-0.996h1.231
		V2.645c0-0.615,0.469-1.143,1.114-1.143c0.615,0,1.143,0.527,1.143,1.143v3.578h3.93c0.556,0,1.025,0.469,1.025,0.996
		c0,0.557-0.47,0.996-1.025,0.996h-3.93v8.854c0,1.848,1.027,2.521,2.551,2.521c0.792,0,1.202-0.205,1.379-0.205
		c0.527,0,0.967,0.439,0.967,0.967c0,0.41-0.264,0.733-0.645,0.881c-0.646,0.263-1.35,0.409-2.229,0.409
		C83.996,21.642,82.148,20.439,82.148,17.361z"/>
	<path fill="#4D4D4D" d="M93.201,7.219c0-0.615,0.499-1.144,1.114-1.144c0.645,0,1.143,0.499,1.143,1.144v2.844
		c1.114-2.521,3.313-4.046,5.219-4.046c0.676,0,1.113,0.498,1.113,1.144c0,0.615-0.41,1.055-0.996,1.144
		c-2.932,0.351-5.336,2.55-5.336,6.918v5.159c0,0.616-0.469,1.144-1.113,1.144s-1.144-0.498-1.144-1.144V7.219z"/>
	<path fill="#4D4D4D" d="M105.075,1.473c0-0.732,0.586-1.201,1.32-1.201c0.761,0,1.348,0.469,1.348,1.201v0.381
		c0,0.703-0.587,1.202-1.348,1.202c-0.734,0-1.32-0.499-1.32-1.202V1.473z M105.28,7.219c0-0.615,0.498-1.144,1.115-1.144
		c0.645,0,1.143,0.499,1.143,1.144v13.162c0,0.646-0.47,1.144-1.114,1.144c-0.646,0-1.144-0.498-1.144-1.144V7.219z"/>
	<path fill="#4D4D4D" d="M111.847,13.873v-0.059c0-4.279,3.343-7.916,7.77-7.916c2.521,0,4.221,0.969,5.569,2.199
		c0.177,0.146,0.352,0.44,0.352,0.792c0,0.615-0.497,1.085-1.084,1.085c-0.294,0-0.558-0.117-0.732-0.264
		c-1.085-0.998-2.315-1.818-4.134-1.818c-3.078,0-5.424,2.609-5.424,5.863v0.059c0,3.283,2.404,5.893,5.571,5.893
		c1.729,0,3.106-0.791,4.22-1.848c0.147-0.146,0.352-0.293,0.645-0.293c0.559,0,1.026,0.498,1.026,1.026
		c0,0.265-0.116,0.528-0.292,0.704c-1.438,1.437-3.166,2.433-5.717,2.433C115.189,21.729,111.847,18.125,111.847,13.873z"/>
</g>
</svg>
